<?xml version="1.0" encoding="utf-8"?>
<!-- Generator: Adobe Illustrator 23.0.0, SVG Export Plug-In . SVG Version: 6.00 Build 0)  -->
<svg version="1.1" id="fd59ce54-f850-4dfc-bc34-dd7d379d600e"
	 xmlns="http://www.w3.org/2000/svg" xmlns:xlink="http://www.w3.org/1999/xlink" x="0px" y="0px" viewBox="0 0 951.8 401.5"
	 style="enable-background:new 0 0 951.8 401.5;" xml:space="preserve">
<style type="text/css">
	.st0{fill:#2F2E41;}
	.st1{fill:#1C58C7;}
	.st2{fill:#3F3D56;}
	.st3{fill:none;stroke:#3F3D56;stroke-miterlimit:10;}
	.st4{fill:#FFFFFF;}
	.st5{opacity:0.3;fill:#1C58C7;enable-background:new    ;}
</style>
<title>page not found</title>
<path class="st0" d="M469.1,0.2c-85.9,0-147.7,55.1-147.7,183.8c0,145.8,61.7,184.4,147.7,184.4S620.4,326.1,620.4,184
	C620.4,32.1,555,0.2,469.1,0.2z M469.7,320c-59.5,0-90.6-34.9-90.6-135.9C379,95,411.4,48,470.9,48s91.9,30.9,91.9,136.1
	C562.8,282.5,529.2,320,469.7,320z"/>
<path class="st1" d="M270,266.7h-35.5V162.1c0-11.6-9.4-21-21-21h-8.3c-11.6,0-21,9.4-21,21l0,0v104.6H84c-6.6,0-12-5.4-12-12
	c0-1.9,0.5-3.9,1.4-5.6L179.5,48.4c5.4-10.2,1.5-22.9-8.7-28.3c-0.3-0.1-0.6-0.3-0.8-0.4l-6.3-3c-10.1-4.8-22.2-0.8-27.4,9.1
	L6.8,267.8c-2.2,4.1-3.4,8.7-3.4,13.4l0,0c0,15.7,12.7,28.4,28.4,28.4c0,0,0,0,0,0h152.3v66.2c0,13.9,11.2,25.1,25.1,25.1l0,0h0
	c13.9,0,25.1-11.2,25.1-25.1l0,0v-66.2H270c11.8,0,21.4-9.6,21.4-21.4l0,0C291.4,276.3,281.8,266.7,270,266.7L270,266.7z"/>
<path class="st1" d="M928,266.7h-35.5V162.1c0-11.6-9.4-21-21-21h-8.3c-11.6,0-21,9.4-21,21l0,0v104.6H742c-6.6,0-12-5.4-12-12
	c0-1.9,0.5-3.9,1.4-5.6L837.5,48.4c5.4-10.2,1.5-22.9-8.7-28.3c-0.3-0.1-0.6-0.3-0.8-0.4l-6.3-3c-10.1-4.8-22.2-0.8-27.4,9.1
	l-129.4,242c-2.2,4.1-3.4,8.7-3.4,13.4l0,0c0,15.7,12.7,28.4,28.4,28.4l0,0h152.3v66.2c0,13.9,11.2,25.1,25.1,25.1c0,0,0,0,0,0l0,0
	c13.9,0,25.1-11.2,25.1-25.1c0,0,0,0,0,0v-66.2H928c11.8,0,21.4-9.6,21.4-21.4l0,0l0,0C949.4,276.3,939.8,266.7,928,266.7L928,266.7
	z"/>
<path class="st2" d="M553.9,22.2c-0.1,1.1,0.2,2.2,0.6,3.1c1.2,2.1,3.9,2.6,6.4,2.8c14.1,1.2,28.3,0.7,42.3-1.3
	c0.8-0.1,1.5-0.3,2.2-0.7c2-1.4,0.8-4.8-1.4-5.9s-4.8-0.8-7.1-1.3c-2.4-0.6-4.6-1.6-6.7-2.9c-4.8-2.8-9.6-5.7-14.3-8.7
	c-2.8-1.8-6.1-3.7-9.2-2.6C558,7.6,553.9,13,553.9,22.2z"/>
<ellipse class="st0" cx="429.6" cy="152.3" rx="17" ry="22"/>
<ellipse class="st0" cx="522.1" cy="152.8" rx="17" ry="22"/>
<path class="st0" d="M509.1,217.8c0,9.9-13.9,18-31,18s-31-8.1-31-18c0-8.6,10.4-15.8,24.3-17.6c2.2-0.3,4.4-0.4,6.7-0.4
	c3.7,0,7.5,0.4,11.1,1.2C500.9,203.6,509.1,210.1,509.1,217.8z"/>
<ellipse class="st3" cx="433.6" cy="147.3" rx="17" ry="22"/>
<ellipse class="st3" cx="526.1" cy="147.8" rx="17" ry="22"/>
<ellipse class="st3" cx="482.1" cy="212.8" rx="31" ry="18"/>
<path class="st4" d="M489.6,202.5c0,1.3-0.5,2.5-1.3,3.4c-0.8,0.9-2,1.4-3.2,1.4h-10c-2.6-0.1-4.6-2.2-4.5-4.8c0-1,0.3-1.9,0.8-2.7
	c2.2-0.3,4.4-0.5,6.7-0.5c3.7,0,7.5,0.4,11.1,1.3C489.5,201.2,489.6,201.8,489.6,202.5z"/>
<circle class="st4" cx="433.6" cy="141.3" r="5"/>
<circle class="st4" cx="526.6" cy="141.3" r="5"/>
<circle class="st5" cx="531.6" cy="188.3" r="5"/>
<circle class="st5" cx="409.6" cy="188.3" r="5"/>
<path class="st2" d="M382,5c-3.1-1.1-6.4,0.9-9.2,2.6c-4.7,3-9.5,5.9-14.3,8.7c-2.1,1.3-4.3,2.3-6.7,2.9c-2.4,0.5-5,0.2-7.1,1.3
	s-3.4,4.5-1.4,5.9c0.7,0.4,1.4,0.6,2.2,0.7c14,2,28.2,2.4,42.3,1.3c2.4-0.2,5.2-0.7,6.4-2.8c0.5-1,0.7-2.1,0.6-3.1
	C394.7,13.3,390.6,7.9,382,5z"/>
</svg>
