<?xml version="1.0" encoding="utf-8"?>
<!-- Generator: Adobe Illustrator 23.0.0, SVG Export Plug-In . SVG Version: 6.00 Build 0)  -->
<svg version="1.1" id="Layer_1" xmlns="http://www.w3.org/2000/svg" xmlns:xlink="http://www.w3.org/1999/xlink" x="0px" y="0px"
	 viewBox="0 0 143.5 43.8" style="enable-background:new 0 0 143.5 43.8;" xml:space="preserve">
<style type="text/css">
	.st0{fill-rule:evenodd;clip-rule:evenodd;fill:#1C58C7;}
	.st1{fill:#ffffff;}
</style>
<path class="st0" d="M27.3,5.5c-2.9-3-6.9-4.7-11.1-4.6C12,0.9,8,2.5,5.1,5.5c-3,2.9-4.6,7-4.6,11.2c0,0.8,0,1.6,0.1,2.4
	c0.1,0.8,0.3,1.6,0.7,2.4c0.4,0.9,0.7,1.7,1,2.3c0.3,0.6,0.9,1.6,1.8,3.1c0.9,1.5,1.7,2.7,2.4,3.7s1.9,2.7,3.5,5.1
	c1.7,2.4,3.1,4.6,4.4,6.5c0.4,0.5,1,0.9,1.6,0.8c0.6,0,1.3-0.3,1.6-0.8c1.3-1.9,2.8-4.1,4.4-6.5c1.7-2.4,2.8-4.1,3.5-5.1
	c0.3-0.4,0.5-0.7,0.8-1.2l-4.5-4.2c-1.7,1.2-3.8,1.9-6.1,1.9c-6,0-10.9-4.8-10.9-10.8c0,0,0-0.1,0-0.1c0-6,4.8-10.8,10.8-10.8
	c0,0,0,0,0,0l0,0c6,0,10.9,4.8,10.9,10.8c0,1.9-0.4,3.6-1.3,5.2l4,3.5c0.2-0.4,0.4-0.8,0.6-1c0.3-0.6,0.6-1.4,1-2.3
	c0.3-0.8,0.5-1.6,0.7-2.4c0.1-0.8,0.1-1.6,0.1-2.4C31.9,12.5,30.3,8.5,27.3,5.5z"/>
<g>
	<rect x="66.6" y="11" class="st1" width="3" height="3"/>
	<rect x="66.6" y="17.1" class="st1" width="3" height="15.2"/>
	<path class="st1" d="M142.4,19.9c-0.5-1-1.2-1.7-2.1-2.2c-2.1-1-4.6-1-6.8,0c-0.9,0.5-1.7,1.3-2.1,2.2c-0.5,1.1-0.8,2.3-0.7,3.5
		v2.5c0,1.2,0.2,2.5,0.7,3.6c0.5,1,1.2,1.8,2.1,2.3c1,0.5,2.2,0.8,3.4,0.8c1.2,0,2.3-0.2,3.4-0.8c0.9-0.5,1.7-1.3,2.1-2.2
		c0.5-1.1,0.8-2.3,0.7-3.6v-2.5C143.1,22.2,142.9,21,142.4,19.9z M140.1,25.9c0.1,1-0.2,2-0.9,2.8c-0.6,0.7-1.5,1-2.4,1h0
		c-0.9,0.1-1.8-0.3-2.4-1c-0.6-0.8-0.9-1.8-0.9-2.8v-2.5c-0.1-1,0.2-2,0.9-2.7c1.4-1.3,3.5-1.3,4.8,0c0.6,0.8,0.9,1.8,0.9,2.7V25.9z
		"/>
	<path class="st1" d="M59.9,11.9c-1.4-0.6-2.9-0.9-4.4-0.9h-3.8v0h-3v21.3h3h3.8c1.5,0,3-0.3,4.4-0.9c1.2-0.6,2.1-1.5,2.8-2.6
		c0.7-1.3,1-2.7,1-4.1v-6c0-1.4-0.3-2.9-1-4.1C62,13.4,61,12.4,59.9,11.9z M60.5,24.8c0.1,1.3-0.4,2.5-1.3,3.4
		c-1,0.9-2.3,1.3-3.7,1.2h-3.9V13.8h3.9c1.3-0.1,2.6,0.4,3.7,1.2c0.9,0.9,1.4,2.2,1.3,3.5V24.8z"/>
	<path class="st1" d="M79.6,16.9c-0.9,0-1.7,0.3-2.5,0.8c-0.6,0.4-1.1,1-1.5,1.6v-2.1h-3v15.2h0h3v-9.6l0,0c0-0.8,0.2-1.6,0.8-2.2
		c0.6-0.5,1.4-0.8,2.2-0.8c0.5,0,0.9,0.1,1.4,0.2c0.4,0.2,0.7,0.4,1,0.7L83,18c-0.4-0.4-0.9-0.7-1.5-0.9
		C80.9,17,80.3,16.9,79.6,16.9z"/>
	<path class="st1" d="M92.9,17.8c-1-0.7-2.1-1-3.3-1c-1.2,0-2.4,0.3-3.5,0.8c-1,0.6-1.7,1.4-2.2,2.4c-0.5,1.2-0.8,2.5-0.8,3.9
		c0,0.4,0,1,0,1.7c0.1,1.5,0.2,2.6,0.8,3.7c0.8,1.4,1.9,2.1,2.3,2.3c0.6,0.4,1.1,0.5,1.3,0.6c1,0.3,1.8,0.3,2.3,0.3
		c0.3,0,1.5-0.1,2.9-0.7c1.2-0.5,2-1.2,2.5-1.7l-2-2c-0.5,0.4-1,0.8-1.6,1c-0.6,0.2-1.2,0.4-1.8,0.4c-1,0.1-2.1-0.3-2.8-1
		c-0.7-0.8-1-1.8-1-2.8h9.6v-1c0-1.5-0.2-2.9-0.7-4.3C94.6,19.5,93.8,18.5,92.9,17.8z M86.1,23.5c0-1,0.3-2,0.9-2.8
		c0.7-0.8,1.6-1.2,2.6-1.1c0.9,0,1.7,0.4,2.2,1c0.6,0.8,0.9,1.9,1,2.9H86.1z"/>
	<polygon class="st1" points="123,19.2 123,17.1 120,17.1 120,32.3 123,32.3 123,22.7 123,22.7 	"/>
	<path class="st1" d="M126.9,16.9c-0.9,0-1.7,0.3-2.5,0.8c-0.6,0.4-1.1,1-1.5,1.6v3.5c0-0.8,0.2-1.6,0.8-2.2
		c0.6-0.5,1.4-0.8,2.2-0.8c0.5,0,0.9,0.1,1.4,0.2c0.4,0.2,0.7,0.4,1,0.7h0l1.9-2.6c-0.4-0.4-0.9-0.7-1.5-0.9
		C128.2,17,127.6,16.9,126.9,16.9z"/>
	<path class="st1" d="M107.8,28.1c0,0-0.1,0-0.2,0c-0.4,0.5-0.9,0.8-1.4,1.1c-0.6,0.3-1.2,0.4-1.8,0.4c-1,0.1-2-0.3-2.7-1
		c-0.7-0.8-1-1.8-0.9-2.8v-2.5c-0.1-1,0.3-2,1-2.7c0.7-0.7,1.7-1,2.7-1c0.6,0,1.2,0.1,1.8,0.4c0.5,0.3,1,0.6,1.4,1.1
		c0,0,0.1,0,0.1,0l2-1.8c0,0,0-0.1,0-0.1c-0.4-0.5-0.8-0.9-1.3-1.2c-0.6-0.4-1.2-0.7-1.9-0.8c-0.7-0.2-1.5-0.3-2.2-0.3
		c-1.2,0-2.4,0.2-3.6,0.8c-1,0.5-1.7,1.3-2.2,2.2c-0.5,1.1-0.8,2.3-0.8,3.5v2.5c0,1.2,0.2,2.5,0.8,3.6c0.2,0.3,0.9,1.5,2.2,2.3
		c1,0.6,1.9,0.7,2.2,0.8c0.5,0.1,0.9,0.1,1.3,0.1c0.5,0,1.3-0.1,2.3-0.3c0.5-0.1,0.9-0.3,1.1-0.4c0.3-0.1,0.5-0.3,0.8-0.5
		c0.5-0.3,1-0.7,1.3-1.2c0,0,0-0.1,0-0.1L107.8,28.1z"/>
	<path class="st1" d="M115.3,29.2c-0.2-0.3-0.2-0.6-0.2-0.9v-5.6v-3h2.3v-2.7h-2.3v-4.4h-3v4.4h-1.6v2.7h1.6v3v5.6
		c-0.1,1.1,0.2,2.1,0.9,3c0.7,0.7,1.7,1.1,2.7,1l0,0h1.7v-2.8H116C115.7,29.5,115.5,29.4,115.3,29.2z"/>
</g>
</svg>
